<svg xmlns="http://www.w3.org/2000/svg" xml:space="preserve" id="Layer_1" width="363.6" height="600" x="0" y="0" style="enable-background:new 0 0 363.6 600" version="1.1"><style>.st1{fill-rule:evenodd;clip-rule:evenodd;fill:#359365}</style><g id="Symbols"><g id="Group-14" transform="translate(0 .041)"><g id="Group-8-Copy" transform="matrix(-1 0 0 1 261 151.959)"><path id="Fill-6" d="M20.1-15.5C-2.6 12.8-.5 69.6.6 145.4c1.2 86.8 1.5 172.5 56.7 177.4 96.4 8.6 121.6-18.3 164.6 40.2.6.8 1.8.3 1.8-.7-4.2-44.4 21.2-39.8 30.4-65.9 12.5-35.6 4.5-72.6 3.8-151.4-.8-95.1 18.6-155-55.4-182.1C123.4-66 42.4-43.3 20.1-15.5" style="fill-rule:evenodd;clip-rule:evenodd;fill:#216e48"/></g><g id="Group-16-Copy" transform="rotate(-81 356.407 289.635)"><g id="Group-3"><path id="Combined-Shape" d="M382.9-7.9c-3.4 8.8-5.9 18.3-9.6 27.1-18.5 43.4-35.2 84.4-73.3 115.3-16.8 13.7-35.3 24.8-53.9 35.8l-3.2 1.9c-1.1.6-2.1 1.3-3.2 1.9-10.1 6-19.9 12.4-30.2 18.2-11 6.2-22 12.4-32.9 18.7-3.2 1.8-6.5 3.6-9.7 5.4l-3.3 1.8-3.3 1.8c-14.1 7.9-28.2 15.9-41.1 25.6-9.7 7.3-18.5 15.8-26.4 24.9-8 9.2-14.5 20-20.7 30.5-7.4 12.4-15.8 24.3-22.3 37.2 2.5-9.5 10.9-22 13-26.9 3.7-8.5 7.3-17 10.2-25.9 2.9-8.8 5.6-17.6 8.6-26.4 1.1-3.2 2.1-6.5 3-9.7l1.1-3.9c1.1-3.9 2.3-7.8 3.7-11.6 2.4-6.5 6-13.3 7.2-20.1.7-4.1 1.4-8.2 2.7-12.2 1.8-5.8 5.9-12.8 13.2-11.3 6.5 1.3 9.7 7.4 9.8 13.5.1 5.9-1.3 11.9-.7 17.8.2 2.2.7 4.2 2 5.2.4-.3 1.3-.9 1.5-1.2 3.9-4.1 6.7-8.9 9.4-13.8l.8-1.4c.3-.5.5-.9.8-1.4 4.5-8.1 9.6-16 14.4-23.9 12.6-20.8 25.3-41.7 40.2-61.1 2.2-2.9 7.8-1.9 8.6 1.8 1.2 5.7 1.5 11.4.1 17.1-1.1 4.8-3.3 9.2-4.8 13.8-1.9 6.1-6 11.7-7.1 18.1-.1.7-.2 1-.2 1.5 0 0 .1.1.2.1 0 0 .3 0 .2.1.3-.1.7-.2 1-.3.1 0 .2-.1.2-.1.1 0 .1-.1.2-.1 3.8-2.4 7-6.7 9.8-11 5.1-7.7 9.2-16 13.3-24.3l1.3-2.6c.6-1.3 1.3-2.6 1.9-3.9 3-6.1 7-11.8 10.4-17.7 5.6-9.6 10.6-19.7 15.8-29.6 4.5-8.7 10.5-20.7 20-25 3.6-1.6 7.9-1.3 10.7 1.7 3.1 3.4 3.5 8.2 3 12.6-.6 5.4-2 10.5-3.7 15.7-1.6 4.9-4.3 10.5-4.7 15.8-.2 3.4-.5 17.8 5.6 16.7 5.9-1.1 10.4-9.3 13.2-13.9 5.2-8.4 8.4-17.7 12.9-26.5 5.3-10.5 12.3-20.2 19.1-29.8 5.5-7.7 10.7-15.6 16.1-23.4 8.7-12.4 17.7-25.8 31.1-33.5 5.4-3.1 11.9-5.4 18-5.1zM104.5 210.4c-1.8 6-3.3 12-4.3 18.2-.5 3-.7 6.1-.9 9.1-.2 3 .8 5 2.6 7.2.7.9 2.2.8 2.8-.2 1.7-2.8 2.2-4.7 2.2-8 0-2.9.3-5.7.6-8.5.6-5.5 1.4-11.1 2.2-16.6.5-3-4.3-4.2-5.2-1.2zm61.8-30.2c-.3 2.8-1.7 5.1-3.1 7.6-1.2 2.2-2 4.8-2.8 7.1-1.3 4-2.8 8.8-2.1 13 .7 4.4 6 4.6 8 1.1 2.3-4 2.4-9.6 3.7-14.1 1.4-4.9 3.2-9.5 2.5-14.7-.4-3.4-5.8-3.5-6.2 0zm72.9-51.7c-.9 6.3-3.2 12.1-4.9 18.2-1.2 4.7-4.1 14.2 2.4 16.2 5.5 1.7 5.5-11.1 6.1-13.7 1.4-6.6 3-13.2 3.3-19.9.2-4-6.4-4.7-6.9-.8z" class="st1"/></g><path id="Combined-Shape_00000031887661234562040460000014167384902473308085_" d="m391.8-5.4.4.2c4.4 2.8 7.4 7.4 8.9 12.5 4.1 13.4 2 29.8-2.5 42.9-7.4 21.7-19.3 42.4-35.5 58.8-8.1 8.2-17.7 14.6-25.9 22.6-7.1 6.9-13.4 14.6-18.7 22.9.5.1 1 .2 1.4.3 4.4.9 8.9.4 13.4.8 5.2.5 10.4 1.2 15.5 2.3 7.6 1.6 15.5 2.4 22.6 5.6 7.3 3.2 16.6 9.8 13.2 19-2.5 6.9-11.4 9.1-17.8 10.3-16.8 3.1-34.3 2.2-51.3 1.4-10.5-.5-21.1-.8-31.5.6-6.9 1-14.5 2.4-20.2 6.7-.8.6-2 1.9-2 2-.1.5-.2 1 .7 1.7 3.7 3 8.6 4.4 12.9 6.4 7 3.2 17.4 8.2 20.3 15.8 2.9 7.4-1.6 15.8-9.1 18.2-7.1 2.3-15 1.3-22.2 0-10.1-1.8-20.1-2.2-30.3-2.7-2.9-.1-6-.1-8.8-.8-2.6-.6-5.2-1.2-7.8-1.4-5-.6-10.1-.6-15.1-.2-3.6.3-7.8.2-11.2 1.4-1.2.4-2.5.8-3.6 1.6-.7.4-1.9 1.5-1.8 1.5-.1.2-.2.3-.2.3v.2c-.1-.3.1.1.3.4l.1.1c1.3 1.6 3.4 2.5 5.3 3.3 5.1 2.1 10.6 3.3 15.7 5.6 6.9 3.1 18.7 11.4 15.3 20.5-3.2 8.7-19 6.9-25.9 5.8-10.9-1.7-21.8-3.7-32.6-5.8-5.8-1.1-11.6-2.4-17.2-4.4-4.2-1.5-5.8-2.5-9.6-3.4-4.5-1-12.9-3-16.8.2-2.8 2.3 2.1 6.9 4.8 8.5 6.8 4 14.2 6.6 21.6 9.5 5.8 2.3 12.4 4.6 16.9 9 2.5 2.5 1.6 6.6-1.8 7.8-7.6 2.6-15.9.4-23.6.1-26.1-1-47.3 13.2-67.5 28.2l-1.3.9c-.6.5-1.3.9-1.9 1.4-1.7 1.3-7.4 7.7-11.8 11.4 2.9-6.3 6.3-12.6 10.2-18.7 2.4-3.7 4.7-7.3 7.1-11 .8-1.2 1.6-2.4 2.4-3.7 1.2-1.9 2.5-3.8 3.8-5.7 2.3-3.5 4.7-6.9 7-10.3 2.9-4.1 6-8.1 9.2-11.9 1.3-1.5 2.5-2.9 3.8-4.3.6-.6 1.2-1.2 1.7-1.9 1.7-1.7 3.3-3.4 5.1-5.1l.7-.7c1.1-1.1 2.3-2.2 3.5-3.2.3-.2.5-.5.8-.7 9.2-8.2 19.3-15.5 30-21.8 13.7-8.2 27.8-15.9 41.8-23.6 8.1-4.4 16.1-8.8 24.1-13.3 19.3-10.9 38.1-22.4 56.7-34.5 9.6-6.3 19-12.7 28-19.6.8-.6 1.6-1.2 2.3-1.8.9-.7 1.8-1.4 2.7-2.2.8-.6 1.6-1.3 2.4-2 4-3.2 7.9-6.6 11.7-10.1.3-.3.6-.6 1-.9 1.8-1.7 3.6-3.3 5.3-5l-1 1 1-1c1-1 2-1.9 2.9-2.9.3-.3.5-.6.8-.8 1.3-1.3 2.5-2.7 3.7-4.1 1.1-1.3 2.2-2.5 3.3-3.8l3.3-4.2.7-.9c1.8-2.4 3.5-4.8 5.2-7.3.2-.4.5-.7.7-1.1 4.7-7 9-14.3 13-21.8 3-5.5 5.7-11.1 8.4-16.7 2.8-5.9 5.5-11.8 8.2-17.7.8-1.7 1.5-3.4 2.3-5l-.4.8c.1-.3.2-.5.4-.8.6-1.3 1.1-2.5 1.7-3.8l3.6-7.8c.6-1.3 1.2-2.5 1.8-3.8l.9-1.9c4.1-8.9 8.1-17.8 11.7-27.3.7-1.7 1.4-3.6 2.1-5.4.1-.6.4-1.1.6-1.7z" class="st1"/><path id="Fill-6_00000153664437574067812240000001846225789853494431_" d="M52.2 342.5c1.3-.3 2.3.1 2.9.8l.1-.1c-.2-.7-.9-1.3-3-.7" style="fill-rule:evenodd;clip-rule:evenodd;fill:#2b5147"/></g><g id="Group-17-Copy" transform="rotate(-135 195.034 80.55)"><g id="Group-10" transform="translate(0 10)"><path id="Fill-8" d="M138.3 129.5c-7.3-16-16.2-31.6-28.7-44.2-20-20.2-51-32.2-73.9-49.6 9.1 20.3 6.4 42.3 14.2 63 7.1 19 19.5 35.3 37.5 45.1 16 8.7 33.5 14.1 48.9 24 7.2 4.7 12.8 11 19.4 15.9-2.2-12.5-7.7-23.9-11.2-36.1-1.7-6.2-3.6-12.3-6.2-18.1" class="st1"/></g><path id="Fill-11" d="M164 35.7c-6.4 17.6-17.4 29.9-20.5 49.2-2.8 17.4-2.4 36.2 2.6 53.2 5.2 17.7 14.4 32.2 22.6 48.6-5.1-10.3 5.7-30.2 7.7-40.7 2.6-13.7 7.2-28.2 6.3-41.8-1.8-23.8-9.3-49.5-18.7-68.5" class="st1"/><path id="Fill-13" d="M224.7 164.8c7.4-8.3 13.6-18.1 18.1-28.3 8.8-20.2 21.6-45.4 23.6-67.4.4-3.9.6-7.9.8-11.9-40.7 20.1-75.7 80.1-67.9 125.8.4 2.4 23.9-16.4 25.4-18.2z" class="st1"/></g></g></g></svg>