<svg xmlns="http://www.w3.org/2000/svg" xml:space="preserve" id="Layer_1" width="481.9" height="603.2" x="0" y="0" style="enable-background:new 0 0 481.9 603.2" version="1.1"><style>.st0{fill-rule:evenodd;clip-rule:evenodd;fill:#216e48}</style><g id="Symbols"><g id="Group-12" transform="translate(.564 .577)"><g id="Group-11-Copy" transform="rotate(180 300.718 142.712)"><path id="Fill-9" d="M307.3 191.7c-6.3-3.5-14.1-10-11.1-19.6 12.2-8.6 20.7-20.9 20.9-37.8.3-20.5-11-41.9-32-48.6-38.5-12.1-84.6-21.8-125.1-21.9-28.3-.1-39.1 18.5-39.8 41.2-.8 27.6 13.4 61.5 29.5 75.4 22.3 19.3 76.5 12.8 104 7.8 2.6-.5 5.3-1 7.9-1.6 7.2 11.7 23.1 16.5 45.1 10.7 2.6-.6 3-4.2.6-5.6" class="st0"/></g><path id="Fill-1-Copy" d="M292.4 485.7c19.5 3.9 37.3-1.2 43.9-14.5 1.6-3.2 2.8-6.7 2.9-10.8 1.5-38.2-67.7-175.5-72.2-200.8 2.5 7 26.9 40.2 32 47.4 19 26.8 35.9 46.4 74.9 42.5 25.3-2.6 17.1-45.7 13.6-62.7-4.3-20.8-30.7-36.3-44.1-52.9-21.8-27.1-47.3-50-73.3-72.7 9.8 2.5 49.5 32 59.5 16.4 4-6.2-11.5-22.8-14-26.9-22.5-37.9-93.1-55.4-132.1-73 7.3 1.9 74.2 5.1 63.4-13.2-6.9-11.7-16.7-21.5-26.6-30.1C193.9 11.4 81.4-8.7 48.4 2.7 10.7 33-37.2 226.4 43.1 143.5c8.1-8.4 13.5-18.9 24.6-24.3-9.6 37.6-36.6 98.1-35.6 134.3 1.2 43.9 49.8 56 77 24.6 23.6-27.2 30.1-67.3 54.7-93.9-16.8 65.6-31.6 131.4-37.3 198.8-.7 8.5 7.8 52.2 25.4 34.7 10.9-10.8 17.1-22.1 23.8-35.6 6-12 13.4-23.9 20.1-35.3 13.9-23.9 14.1-52.9 17.7-78.8 1.5 20.5 4.8 41 6.3 61.7.9 12.2 6.9 33.4 5.5 45.5-3.4 29.9 2.5 53.3 12.9 70.9 13.5 22.8 34.7 35.7 54.2 39.6" style="fill-rule:evenodd;clip-rule:evenodd;fill:#359365"/><g id="Group-5-Copy" transform="translate(191.436 494.423)"><path id="Fill-3" d="M79.6 107c.5.4.3 1.2-.4 1.2-192.3-.7-232.3-99.5-175.7-146 34.2-28.1 75 9.1 81.7 27.1 6.6-39.3 34.3-61.6 58.6-50 41.9 20 12.4 80.2 12.4 107.3-.2 26.2 3.1 46.6 23.4 60.4" class="st0"/></g></g></g></svg>